<svg xmlns="http://www.w3.org/2000/svg" viewBox="0 0 474.13 139.28"><defs><style>.cls-1{fill:#fbb800;}.cls-2{fill:#fff;}</style></defs><title>Asset 3</title><g id="Layer_2" data-name="Layer 2"><g id="Layer_1-2" data-name="Layer 1"><path class="cls-1" d="M12,114a5.34,5.34,0,0,0-4.73,2.09q-1.44,2.09-1.44,6.85,0,4.14,1.38,5.83T12,130.43h8.68v4.38H11.69A16.79,16.79,0,0,1,7,134.3a9.11,9.11,0,0,1-3.18-1.7,9.26,9.26,0,0,1-2.89-4,16,16,0,0,1-1-5.9q0-6.66,2.89-9.84t9-3.17h8.79V114Z"/><path class="cls-1" d="M25.38,109.68h13q4.55,0,6.66,1.83t2.12,5.73A7.83,7.83,0,0,1,45.86,122a5.94,5.94,0,0,1-3.76,2.36l6.27,10.5H42.42l-5.54-9.88H30.66v9.88H25.38Zm11.76,4.48H30.66v6.33h6.48a6.75,6.75,0,0,0,3.66-.72,3.48,3.48,0,0,0,0-4.9A6.78,6.78,0,0,0,37.14,114.16Z"/><path class="cls-1" d="M62.86,114.06a5.91,5.91,0,0,0-4.33,1.44,6.39,6.39,0,0,0-1.61,4.39H71.53v4.38H56.88c0,2.19.48,3.76,1.39,4.72s2.45,1.43,4.59,1.43h8.67v4.38H62.6A16.79,16.79,0,0,1,58,134.3a9.15,9.15,0,0,1-3.17-1.7,9.36,9.36,0,0,1-2.9-4,16.25,16.25,0,0,1-1-5.9q0-6.66,2.88-9.84t9-3.17h8.78v4.38Z"/><path class="cls-1" d="M84.23,109.68h5.6l10.72,25.13H94.67l-2.31-6H81.44l-2.24,6H73.6Zm2.6,5-3.68,9.68h7.49Z"/><path class="cls-1" d="M105.46,114.09H97.34v-4.37h21.74v4.37h-8.15v20.72h-5.47Z"/><path class="cls-1" d="M128.07,134.81h-5.52V109.68h5.52Z"/><path class="cls-1" d="M141.4,134.81l-11-25.13h6L144,128.4l7.74-18.72h5.63l-10.5,25.13Z"/><path class="cls-1" d="M169.94,114.06a5.94,5.94,0,0,0-4.33,1.44,6.39,6.39,0,0,0-1.61,4.39h14.61v4.38H164q0,3.28,1.39,4.72c.91.95,2.44,1.43,4.58,1.43h8.67v4.38h-8.92a16.74,16.74,0,0,1-4.65-.51,9.11,9.11,0,0,1-3.18-1.7,9.34,9.34,0,0,1-2.89-4,16,16,0,0,1-1-5.9q0-6.66,2.89-9.84t9-3.17h8.77v4.38Z"/><path class="cls-1" d="M209.27,125.05c-3.92.4-6.32-.8-7.44-3.21-.32-.71-.24-1.27.8-1.27,5,.08,11.44-2.32,16.4-2.65,3.84-.24,6.08,1.45,7.2,3.84.24.89.08,1.37-.8,1.29a27.5,27.5,0,0,0-8.08.48c.56,2.24-.16,5.28-2.72,8.64-4.56,5.91-14.8,10.48-22.4,3.84-8.64-7.52-1.68-21.76,11-25.36a6.55,6.55,0,0,1-4.72-6.24c-.4-7.84,8.56-14.81,13.92-16.49,4.08-1.28,7.68-1.92,11.28,1.2,3.44,3,3.68,5.44,1.76,9.45-1.12,2.39-2.56,5.76-3.28,7.76-.24.63-.72.88-1.68.4-1.84-1-3.2-3.61-1.76-7.69,1.52-4.4,4-6.79,2.56-8.16-2.4-2.32-17.68,6.56-17.12,14.56.24,3.21,2.72,3.68,5.84,3.6,3.92-.08,5.44,2,5.92,3.37.32.8-.08,1-.88,1.11-11.84,1-21.68,8.24-21.92,15.93-.08,3.28,1.84,5.76,5.36,6,3.92.24,10.88-3.2,14.48-11C211.59,124.65,210.39,125,209.27,125.05Z"/><path class="cls-1" d="M237.14,134.81h-5.52V109.68h5.52Z"/><path class="cls-1" d="M243.25,109.68h6.68l10.29,18-.26-18h5.4v25.13h-6.13l-10.8-19,.24,19h-5.42Z"/><path class="cls-1" d="M276.83,114.09h-8.11v-4.37h21.73v4.37H282.3v20.72h-5.47Z"/><path class="cls-1" d="M304.24,114.06a5.94,5.94,0,0,0-4.33,1.44,6.39,6.39,0,0,0-1.61,4.39h14.61v4.38H298.27q0,3.28,1.39,4.72c.91.95,2.44,1.43,4.58,1.43h8.67v4.38H304a16.79,16.79,0,0,1-4.65-.51,9.11,9.11,0,0,1-3.18-1.7,9.34,9.34,0,0,1-2.89-4,16,16,0,0,1-1-5.9q0-6.66,2.89-9.84t8.95-3.17h8.77v4.38Z"/><path class="cls-1" d="M318.42,109.68h13c3,0,5.25.61,6.66,1.83s2.12,3.13,2.12,5.73A7.9,7.9,0,0,1,338.9,122a6,6,0,0,1-3.77,2.36l6.28,10.5h-6l-5.54-9.88H323.7v9.88h-5.28Zm11.76,4.48H323.7v6.33h6.48a6.69,6.69,0,0,0,3.65-.72,3.46,3.46,0,0,0,0-4.9A6.8,6.8,0,0,0,330.18,114.16Z"/><path class="cls-1" d="M352.74,109.68h5.61l10.71,25.13h-5.88l-2.31-6H350l-2.24,6h-5.6Zm2.6,5-3.68,9.68h7.49Z"/><path class="cls-1" d="M382.05,114a5.32,5.32,0,0,0-4.72,2.09q-1.45,2.09-1.45,6.85,0,4.14,1.39,5.83t4.78,1.69h8.68v4.38H381.8a16.69,16.69,0,0,1-4.65-.51,9.11,9.11,0,0,1-3.18-1.7,9.28,9.28,0,0,1-2.9-4,16.25,16.25,0,0,1-1-5.9q0-6.66,2.88-9.84t9-3.17h8.78V114Z"/><path class="cls-1" d="M401,114.09h-8.11v-4.37h21.73v4.37h-8.15v20.72H401Z"/><path class="cls-1" d="M423.59,134.81h-5.52V109.68h5.52Z"/><path class="cls-1" d="M436.92,134.81,426,109.68h6l7.56,18.72,7.74-18.72h5.62l-10.49,25.13Z"/><path class="cls-1" d="M465.46,114.06a5.91,5.91,0,0,0-4.33,1.44,6.39,6.39,0,0,0-1.61,4.39h14.61v4.38H459.48c0,2.19.48,3.76,1.39,4.72s2.45,1.43,4.59,1.43h8.67v4.38H465.2a16.66,16.66,0,0,1-4.64-.51,9.11,9.11,0,0,1-3.18-1.7,9.36,9.36,0,0,1-2.9-4,16.25,16.25,0,0,1-1-5.9q0-6.66,2.88-9.84t9-3.17h8.78v4.38Z"/><path class="cls-2" d="M150,65.6h51.88V79.67H133.07V58.51q0-13.75,5-18.65t8.83-6q3.87-1.08,11.86-1.08h13q6.57,0,10.08-2.15A7.25,7.25,0,0,0,185.31,24q0-9.9-13.6-9.9H134.38V0h40.91q15.51,0,22.07,5.84t6.56,17.66a28.52,28.52,0,0,1-2.51,12.4A17.71,17.71,0,0,1,193.6,44q-5.31,2.87-17.12,2.86H165.27q-8.82,0-12,2.4T150,58.52Z"/><path class="cls-2" d="M279.06,65.48V79.67H251.39q-10.26,0-16-1.67a25.91,25.91,0,0,1-10.73-6.39A30,30,0,0,1,217,58.89a61.2,61.2,0,0,1-2.63-19q0-13.38,4.53-22.88T231.47,3.76Q239.45,0,252.1,0h27V14.19H254.13q-11.34,0-16.16,5.68t-4.83,19q0,14.46,4.89,20.56t16.7,6.1Z"/></g></g></svg>